<?xml version="1.0" encoding="UTF-8"?>
<svg width="509px" height="320px" viewBox="0 0 509 320" version="1.1" xmlns="http://www.w3.org/2000/svg" xmlns:xlink="http://www.w3.org/1999/xlink">
    <title>Logo w/ Card</title>
    <defs>
        <ellipse id="path-1" cx="160.149153" cy="160" rx="126.82953" ry="126.711409"></ellipse>
        <linearGradient x1="50%" y1="41.0772569%" x2="61.1558735%" y2="57.9471641%" id="linearGradient-3">
            <stop stop-color="#66A0CA" offset="0%"></stop>
            <stop stop-color="#00396E" offset="100%"></stop>
        </linearGradient>
        <linearGradient x1="50.2203212%" y1="50%" x2="51.0007046%" y2="51.1057197%" id="linearGradient-4">
            <stop stop-color="#D8F0FA" offset="0%"></stop>
            <stop stop-color="#B0DDF4" offset="100%"></stop>
        </linearGradient>
    </defs>
    <g id="Login" stroke="none" stroke-width="1" fill="none" fill-rule="evenodd">
        <g id="Desktop-HD" transform="translate(-465.000000, -96.000000)">
            <g id="Logo-w/-Card" transform="translate(466.000000, 96.000000)">
                <g id="Back-Plain" transform="translate(93.850847, 0.000000)">
                    <g id="Background">
                        <ellipse id="Oval" fill="#E3EEF4" cx="160.149153" cy="160" rx="160.149153" ry="160"></ellipse>
                        <ellipse id="Oval" fill="#B2D2E4" cx="160.149153" cy="160" rx="148.094915" ry="147.956989"></ellipse>
                    </g>
                    <ellipse id="Oval" fill="#83A2BB" cx="160.149153" cy="160" rx="135.428142" ry="135.302013"></ellipse>
                    <mask id="mask-2" fill="white">
                        <use xlink:href="#path-1"></use>
                    </mask>
                    <use id="Oval" fill="#B2D2E4" xlink:href="#path-1"></use>
                    <polygon id="Path" fill="#83A2BB" fill-rule="nonzero" mask="url(#mask-2)" points="171.562735 62.4375839 160.149153 -15.5246232 148.734495 62.4375839 119.632654 -10.7933343 126.52213 67.6971812 81.3004109 3.1454675 106.121922 77.9328859 47.2189236 25.5403377 88.6344947 92.5927517 19.2255342 55.1839632 75.0035447 110.886443 -1.17062645 90.4782483 65.9610291 131.828188 -12.8699961 129.520469 61.9970689 154.288322 -15.2418586 170.205849 63.3255545 177.05557 -8.15834637 210.341029 69.871248 198.905772 7.99866673 247.762312 81.2848309 218.656644 32.3581519 280.452305 96.9515024 235.245101 63.606883 306.648683 116.023224 247.777718 100.060233 324.939193 137.474612 255.577987 139.752992 334.337789 160.149153 258.223893 180.545313 334.337789 182.822618 255.577987 220.238072 324.939193 204.274006 247.777718 256.691422 306.648683 223.345728 235.245101 287.940153 280.452305 239.012399 218.656644 312.299638 247.762312 250.425982 198.905772 328.456651 210.341029 256.971676 177.05557 335.540164 170.205849 258.300161 154.288322 333.168301 129.520469 254.336201 131.828188 321.468932 90.4782483 245.293686 110.886443 301.072771 55.1839632 231.662736 92.5927517 273.079381 25.5403377 214.175308 77.9328859 238.997894 3.1454675 193.7751 67.6971812 200.665651 -10.7933343"></polygon>
                    <polygon id="Path" fill="#B2D2E4" fill-rule="nonzero" mask="url(#mask-2)" points="160.149153 28.9932886 168.668243 87.1824012 190.389543 32.5245915 185.247158 91.1080168 218.999667 42.9281266 200.473034 98.7476171 244.437144 59.6430367 213.525038 109.689349 265.330633 81.7682167 223.699534 123.343341 280.553762 108.110892 230.448013 138.973504 289.285847 137.250923 233.406662 155.73721 291.05614 167.617363 232.41598 172.730724 285.769202 197.573148 227.529375 189.037922 273.710056 225.503356 219.010284 203.779677 255.528812 249.90226 207.317974 216.161259 232.205625 269.454511 193.082781 225.515173 204.997856 283.10604 177.072128 231.337147 175.372281 290.120891 160.149153 233.313317 144.926024 290.120891 143.226177 231.337147 115.300449 283.10604 127.215524 225.515173 88.0926797 269.454511 112.980331 216.161259 64.7694934 249.90226 101.288021 203.779677 46.5882491 225.503356 92.7689303 189.037922 34.5291026 197.573148 87.8823247 172.730724 29.2421655 167.617363 86.8916426 155.73721 31.0124579 137.250923 89.8502918 138.973504 39.744543 108.110892 96.5987707 123.343341 54.9676717 81.7682167 106.773267 109.689349 75.8611613 59.6430367 119.825271 98.7476171 101.298638 42.9281266 135.051147 91.1080168 129.908762 32.5245915 151.630062 87.1824012"></polygon>
                </g>
                <g id="Logo" transform="translate(0.000000, 52.473118)">
                    <g id="gtoons" fill-rule="nonzero">
                        <path d="M496.959529,1.94665691 L507.65906,0.144331385 L501.582926,31.7589161 L480.914233,37.1832202 L481.246263,37.1911729 C485.911098,37.3149001 489.5159,38.3565676 492.205189,40.4980149 L492.523519,40.7602791 L492.783769,40.9884345 C504.570608,51.616618 493.653614,81.5719774 477.567857,92.0085716 L476.585313,92.6389926 L475.666379,93.2127747 C475.517301,93.3043753 475.369955,93.3941336 475.223884,93.4823084 L474.359071,93.9944257 C474.21626,94.0773017 474.073805,94.1591119 473.931248,94.240115 L473.502809,94.480962 L472.84508,94.8395783 L472.223482,95.1672681 L471.80812,95.3800699 L471.39041,95.5888664 L470.750117,95.8985445 L470.083582,96.2075243 L469.398333,96.5112734 L468.689382,96.8114384 L467.951741,97.109666 L467.18042,97.4076027 L466.370432,97.7068952 L465.516788,98.00919 L464.302065,98.4197661 L463.327159,98.73547 L461.932646,99.1699014 L460.020783,99.7401144 L457.899896,100.347635 L456.037169,100.865637 L452.93867,101.705094 L449.439409,102.631208 L443.27733,104.23082 L437.286438,105.760402 L432.077345,107.062515 L428.681379,107.890274 L425.270566,108.695232 L423.19638,109.164468 L411.303961,111.752437 L417.25035,80.8046168 L424.584925,78.6434944 L427.269506,77.8737509 L428.70328,77.4777967 L431.431997,76.7390113 L434.843231,75.802766 L437.2359,75.135914 L438.754023,74.7076268 L442.287424,73.6917757 L444.293091,73.1005735 L443.795487,73.1378882 C440.479002,73.3634615 437.56988,73.0830679 434.972217,72.2504214 L434.456809,72.076515 L434.069586,71.9340794 C426.9364,69.2144034 423.726209,62.8537098 423.789775,54.2870523 C423.104188,57.0318413 422.41159,59.7753535 421.71251,62.5174804 L420.659095,66.6296179 L419.140795,72.4890977 L408.02277,114.548964 L372.857335,122.7094 L365.405772,100.83646 L359.251989,127.751051 L323.199525,136.74406 L332.489735,96.7398045 C323.430809,124.450398 305.706418,142.170773 280.06359,148.777649 L279.284112,148.974454 L277.960252,149.293796 C277.507763,149.400162 277.062303,149.50197 276.608217,149.602503 L275.918663,149.752759 L274.624362,150.020382 L273.418516,150.251609 C263.76413,152.025862 256.647991,151.433487 250.552053,147.895581 L250.128392,147.643964 L249.732376,147.399684 L249.164322,147.038478 L248.393865,146.52411 C243.251498,142.979284 240.70212,138.755665 239.851558,132.255375 L239.787921,131.737436 L239.693409,130.794912 L239.658563,130.369987 L239.595103,129.435675 L239.54746,128.47899 L239.513889,127.49631 L239.492868,126.484076 L239.482669,125.395484 L239.482639,124.987427 C238.267925,128.181858 236.840285,131.442436 235.208521,134.740408 C225.379753,154.605387 209.847535,167.688067 189.713525,172.91326 C186.904476,173.642265 183.771235,174.197912 180.49459,174.563595 L179.507475,174.667584 L178.353603,174.772811 C175.693583,174.995176 173.057779,175.079249 170.56193,175.015949 L169.501187,174.979771 L168.478922,174.924975 C164.722409,174.684991 161.628417,174.088239 159.205388,172.91677 C149.505713,168.227267 146.534209,156.338421 148.2961,142.640976 L148.456215,141.479261 C148.741705,139.536295 149.119978,137.560463 149.585461,135.566828 L149.875171,134.36863 C150.125243,133.368553 150.396839,132.364778 150.689262,131.359188 L151.050122,130.151729 L151.430709,128.94325 C151.625889,128.338877 151.828366,127.734392 152.03799,127.130202 L152.466723,125.922337 C152.539751,125.721133 152.613563,125.519991 152.688152,125.318927 L135.935143,130.283233 L130.885059,150.914757 L122.967203,181.723964 L122.793176,182.375229 C122.763795,182.481285 122.734206,182.586111 122.704381,182.689735 L122.522372,183.297226 L122.333332,183.877007 C121.046593,187.652457 119.19999,189.659017 114.970504,191.466806 L114.317981,191.736679 L113.628348,192.004749 L112.900237,192.272193 C112.775603,192.31678 112.649309,192.36139 112.521325,192.406047 L111.732934,192.674759 L110.902647,192.945788 L110.029097,193.220313 L108.634662,193.641229 L106.611233,194.225674 L97.3817933,196.798988 L95.2919745,197.348243 L94.5244917,197.526075 L94.0916899,197.603581 L94.0443351,197.609662 C90.121734,198.081801 86.7131605,195.602744 85.7008463,192.058582 C85.3343308,190.775394 85.3221225,189.776464 85.4449114,188.559436 L85.4947677,188.127037 L85.5613494,187.654269 L85.6455673,187.134947 L85.748332,186.562886 L85.8705544,185.931904 L86.0923631,184.861424 L86.570179,182.704286 L87.4922432,178.760218 L89.7284112,169.5482 L94.0722949,151.908141 L95.7921847,144.815105 L96.9662989,139.888978 L87.183045,142.50761 L77.5566167,145.097983 L77.4893916,145.37124 L77.2676922,146.215758 L74.6163931,156.092645 L72.0459853,156.830134 L72.2753737,157.006252 C72.4333746,157.131251 72.5944414,157.267393 72.7594801,157.415601 L73.0101303,157.647076 L73.2674179,157.897341 C75.1527116,159.775793 75.4856625,161.296131 75.522009,163.291927 C75.5317791,163.8284 75.4956544,164.318676 75.4286431,164.848952 C75.4046437,165.038865 75.3758327,165.237769 75.3421274,165.447223 L75.2262459,166.108792 C75.2044576,166.224848 75.1814251,166.343931 75.157138,166.466235 L74.9962776,167.240283 L74.7721761,168.241239 L74.4009523,169.795475 L74.1841136,170.667774 L73.5502645,173.129896 L72.8715341,175.676906 L71.6731119,180.04665 L70.2373082,185.155378 L68.1082803,192.582321 L65.874146,200.257369 L64.7905561,203.958045 L61.1409512,205.237757 C55.6289572,207.170504 49.9554162,208.92402 44.1206254,210.498596 L42.707242,210.876073 L40.6416459,211.41246 L39.3004233,211.749951 L37.9874917,212.071194 L36.7025232,212.37604 L35.4451902,212.664346 L34.2151651,212.935964 C33.8096716,213.023706 33.4086748,213.108642 33.0121201,213.190749 L31.8357276,213.428555 C31.641865,213.466767 31.4490993,213.504264 31.2574236,213.541046 L30.1203954,213.75311 C29.7457097,213.820916 29.3753296,213.885831 29.0092004,213.947831 L27.923511,214.125062 C27.565829,214.181208 27.2123434,214.234415 26.8629995,214.284658 L25.8273382,214.426473 L24.8161994,214.55036 L23.8292554,214.656175 L22.8661786,214.743771 L21.9266412,214.813002 C21.7719951,214.823002 21.6183161,214.832231 21.4655975,214.840685 L20.5607549,214.882096 C13.562237,215.133313 8.65492907,213.660648 5.13005687,210.148587 C-0.583450127,204.455858 -1.8949912,195.499573 0.215045456,184.126819 C3.82348654,164.677903 15.6361082,148.157215 31.8307169,140.262734 L32.1171804,140.125059 L32.7174395,139.848205 L33.3542387,139.569299 L34.0276953,139.288286 L34.7379264,139.005113 L35.4850491,138.719726 L36.2691806,138.432069 L37.090438,138.142089 L37.9489386,137.849732 L38.8447994,137.554942 L39.7781377,137.257666 L41.2486716,136.806971 L42.276216,136.503241 L43.3416478,136.196835 L44.4450843,135.887699 L45.5866426,135.575777 L47.3707147,135.102553 L48.60809,134.78343 L50.5364368,134.299151 L51.8703614,133.972488 L53.9440812,133.476644 L56.1055521,132.973617 L58.3551695,132.463223 L60.6933287,131.945279 L63.1204251,131.419602 L65.6368542,130.886008 L68.2430114,130.344315 L79.1481302,128.124287 L83.0238541,111.588506 L166.458988,90.1023598 L162.529317,106.034099 C167.797982,98.1828788 174.203082,91.4457206 181.275389,87.0906754 C196.06334,77.9844225 218.085745,73.1456639 229.941414,77.0441697 C239.205261,80.0904052 244.116735,88.6009683 244.471032,99.7800678 L244.487817,100.52253 C248.086905,90.7789146 253.354457,81.2572533 259.359441,74.2672711 C270.697865,61.0690069 291.319825,51.7786154 309.48802,51.5566663 L310.181613,51.5526612 L311.727049,51.5590529 L312.704504,51.5712881 L313.639752,51.5911112 L314.537971,51.6197591 L315.404489,51.6586911 L316.244712,51.7096497 L317.191543,51.7861661 L317.467408,51.8133149 L318.065203,51.8795556 L318.264747,51.904356 L318.93553,51.9976215 C320.992426,52.3119711 322.770739,52.8422198 324.441962,53.6771735 L324.895223,53.9125096 L325.560325,54.2910782 L326.030253,54.5833578 L326.493353,54.8920084 L326.962364,55.2265729 L327.169698,55.3806435 L327.523852,55.6533627 L327.696976,55.7907715 L328.377829,56.3563376 C334.932328,61.990302 337.261392,70.7613604 335.95035,81.8399898 L345.140482,42.2624211 L380.309615,32.7995916 L388.626545,56.0868269 L395.701343,28.4940408 L432.20931,19.4000801 L429.365463,31.4016007 C428.883635,33.4349964 428.398512,35.467261 427.910077,37.4984543 C430.13737,32.4254977 433.072232,27.6805062 436.209792,24.4345694 L436.741127,23.8940915 L437.279143,23.3654593 C437.369419,23.2783167 437.460012,23.1916495 437.550939,23.1054484 L438.100676,22.5937637 C438.285362,22.4250182 438.471539,22.2580647 438.659358,22.0928299 L439.227894,21.6022094 L439.80719,21.1214641 C439.904686,21.0421385 440.002669,20.9632062 440.101156,20.8846579 L440.698291,20.4179047 C440.899457,20.2638081 441.102793,20.1111749 441.308452,19.9599322 L441.932545,19.5103025 L442.571477,19.0685778 L443.226155,18.6343202 L443.897485,18.207092 C444.124137,18.0658055 444.353716,17.9256175 444.586373,17.7864552 L445.293726,17.371972 C445.413207,17.3033799 445.533496,17.235026 445.65461,17.1669011 L446.391361,16.7608274 C446.515855,16.6935821 446.641213,16.6265477 446.767453,16.5597149 L447.535641,16.1610654 C447.665488,16.0950028 447.796255,16.0291237 447.927962,15.9634188 L448.729626,15.5712084 L449.55474,15.1827434 L450.404212,14.797586 C450.547871,14.7336444 450.692583,14.6698223 450.838366,14.6061108 L451.726073,14.2250937 C451.876218,14.1617874 452.027472,14.0985734 452.179854,14.0354424 L453.107837,13.6575805 L454.063804,13.2812749 L455.04866,12.9060875 C455.215261,12.8436252 455.383103,12.7811912 455.552205,12.7187764 L456.582096,12.3444455 L457.643143,11.9701384 L458.736253,11.5954171 L459.862331,11.2198437 C460.052809,11.1571529 460.244698,11.0944082 460.438018,11.0316007 L462.217023,10.4643897 L463.447448,10.0836332 L465.361986,9.50748031 L466.685599,9.11939436 L468.048074,8.72761037 L469.450317,8.3316905 L470.893234,7.9311969 L473.135858,7.32092293 L475.475098,6.69789516 C482.947239,4.72739391 489.747276,3.20476812 495.883546,2.13140923 L496.959529,1.94665691 Z M20.9793776,170.603584 L20.8402357,170.84653 C18.1104969,175.645105 16.1120863,181.064752 15.0374383,186.856931 C14.9705807,187.217283 14.9088013,187.57031 14.8519492,187.916006 L14.6960237,188.931096 C13.9416473,194.227562 14.4100095,197.645951 15.4828223,199.163318 L15.5851505,199.300001 L15.6785195,199.410808 C15.7420098,199.438195 15.8164519,199.465547 15.9050923,199.493254 L16.0491075,199.535129 L16.2165329,199.577655 C17.1803432,199.806927 18.6283075,199.902262 20.5479303,199.806055 C21.2022037,199.773264 21.8980039,199.719051 22.6360981,199.643138 L23.3245677,199.566002 L23.2427968,199.512762 C22.811292,199.223417 22.393377,198.903486 21.9887237,198.552881 L21.5884787,198.192049 L21.2745994,197.888646 C16.0735513,192.706501 16.8096074,181.291131 20.7117016,171.277853 L20.9793776,170.603584 Z M57.8718425,173.405834 L53.4841891,174.631114 L54.0858429,175.877918 C55.012133,177.802461 55.3851192,179.867701 55.3133636,182.090076 L55.285476,182.638614 L56.5208176,178.276912 L57.5620726,174.536261 L57.8718425,173.405834 Z M145.798256,110.935321 L95.627267,123.853954 L95.4162376,124.758834 L100.541869,123.423307 L102.390088,122.95531 L104.104736,122.539609 L104.882009,122.366995 C104.957502,122.351256 105.029637,122.336619 105.098681,122.32304 C105.375634,122.26857 105.622706,122.226268 105.897153,122.192398 L106.797143,122.083995 L107.31576,122.028715 L107.7784,121.990366 C109.163047,121.898755 109.823305,122.104861 110.876496,123.017676 L111.223447,123.329902 L111.60434,123.691973 L112.852325,124.92082 L113.495969,125.550689 C113.542811,125.597442 113.588011,125.642972 113.631609,125.687437 L113.874324,125.942721 C114.509479,126.637006 114.706139,127.115127 114.669927,128.154904 L114.647811,128.546472 C114.642625,128.616042 114.636717,128.687873 114.630129,128.762121 L114.553599,129.499933 L114.406137,130.731157 C114.383189,130.920256 114.354997,131.111222 114.320579,131.317749 L114.222571,131.86548 L114.00248,132.965239 L113.471823,135.408917 L112.755881,138.557604 L111.381945,144.417908 L110.026619,150.075438 L108.523143,156.257412 L103.572185,176.378888 L102.764583,179.701195 L104.068577,179.329608 L105.491818,178.914141 L106.644217,178.566036 L107.550771,178.278713 L108.166451,178.070418 L108.363144,177.99907 L116.264086,147.263459 L123.343542,118.347352 L145.597275,111.750089 L145.798256,110.935321 Z M225.217326,91.3062836 C218.208039,89.0014164 200.539802,92.8834781 189.200017,99.8663894 C179.44762,105.871802 170.137699,119.740507 165.492079,134.58758 C165.258142,135.335228 165.040376,136.072026 164.83833,136.797128 L164.546993,137.875903 C163.80123,140.728677 163.303342,143.387524 163.024322,145.798188 L162.929892,146.690447 C162.915845,146.837183 162.902638,146.982923 162.890265,147.127653 L162.825976,147.98382 L162.781356,148.81513 C162.537063,154.545817 163.713451,158.402807 165.785813,159.404733 L166.075516,159.485189 L166.324978,159.543591 L166.642037,159.609091 C167.28115,159.73236 168.072196,159.833435 168.929246,159.901217 L169.362873,159.932282 L170.227058,159.978639 C172.065084,160.057481 174.144867,160.020415 176.246397,159.872426 L177.035061,159.81174 L178.072322,159.71717 C180.905175,159.436132 183.623521,158.973885 185.914134,158.379425 C186.590821,158.203811 187.260616,158.017109 187.923493,157.81933 C186.837718,157.917495 185.727492,157.966739 184.592492,157.966739 C178.352695,157.966739 173.684171,156.307676 171.660251,151.052506 C168.190228,142.042623 172.533861,122.857474 179.972404,110.210676 C183.200488,104.722386 187.197326,101.038772 193.111544,98.0527225 C202.18491,93.4716044 209.428831,92.3205977 215.171748,96.3394549 C220.924742,100.365364 222.175661,107.421183 220.642254,117.153851 L220.554211,117.697307 L220.351896,118.843012 L220.124746,120.013543 L219.884774,121.156653 C219.753388,121.760434 219.612411,122.376218 219.456984,123.023612 L219.296561,123.682268 L218.923761,125.145092 L218.790127,125.64753 L218.436622,126.927708 C218.033285,128.346862 217.606168,129.715281 217.142409,131.067175 L216.787518,132.078533 L216.364861,133.22266 C214.89999,137.078736 213.178915,140.502151 211.204395,143.480135 C215.250254,139.166419 218.75091,134.036948 221.688598,128.099571 L221.98271,127.500559 L222.552721,126.312173 L223.09862,125.136936 L223.620615,123.975209 L224.118915,122.827353 C224.200002,122.637219 224.280111,122.447679 224.359245,122.258738 L224.822393,121.132363 C224.972902,120.759346 225.119548,120.388791 225.262367,120.020757 L225.679376,118.924283 L226.073628,117.8433 C226.137452,117.664447 226.200336,117.486255 226.262285,117.30873 L226.622793,116.251659 C226.739245,115.902014 226.85199,115.555101 226.961065,115.21098 L227.27731,114.187052 C227.328193,114.017814 227.378167,113.849288 227.427237,113.681483 L227.710832,112.683359 L227.972921,111.702887 C228.014822,111.540966 228.055835,111.379796 228.095966,111.219383 L228.326187,110.266066 L228.535423,109.331301 C228.701101,108.560161 228.845137,107.808722 228.968074,107.077922 L229.105506,106.210929 C229.147964,105.925274 229.187081,105.642981 229.222891,105.364111 L229.320439,104.537826 C229.335055,104.401843 229.348853,104.266731 229.361838,104.132497 L229.43002,103.337689 C229.439768,103.206997 229.448711,103.077198 229.456854,102.9483 L229.496138,102.185779 C229.729163,96.2982983 228.213032,92.4334347 225.398721,91.3703289 L225.217326,91.3062836 Z M206.099913,109.070492 L205.820745,109.129897 C204.352678,109.456522 202.361913,110.219219 199.924999,111.449611 C196.552497,113.152365 194.720165,114.8411 192.977261,117.804333 C190.30496,122.347704 187.961156,128.535986 186.610229,134.502819 C185.96952,137.332732 185.589335,139.960625 185.497453,142.126668 L185.485538,142.459772 L185.476811,142.929025 L185.78359,142.916286 C193.200164,142.51329 198.223727,138.239606 202.042651,128.490601 L202.242541,127.972432 L202.616621,126.959875 C202.987585,125.925431 203.342765,124.838891 203.674063,123.728055 L203.917932,122.890807 L204.291317,121.532246 L204.38041,121.194016 L204.670474,120.05043 L204.799882,119.518675 L205.036618,118.502969 L205.14175,118.029373 L205.346512,117.057687 L205.529631,116.105528 L205.694939,115.174951 C206.126658,112.579923 206.244555,110.548778 206.108854,109.147594 L206.099913,109.070492 Z M310.142442,66.5711696 L309.523728,66.5763408 C296.090837,66.7886335 280.248844,73.7603492 271.600234,83.1466731 L271.200136,83.588409 L270.810794,84.0335824 C261.997558,94.2924536 254.791283,112.359703 254.561115,124.349381 L254.555443,124.934076 L254.556234,125.365852 L254.564354,126.252313 L254.581185,127.07656 L254.606815,127.838753 L254.647985,128.642434 L254.707795,129.47337 L254.773349,130.118699 L254.807426,130.405287 L254.877012,130.924426 C255.11554,132.541585 255.44241,133.070899 256.535671,133.868323 L256.88732,134.11695 L257.33861,134.419648 L257.741394,134.676865 L258.006509,134.839776 C260.430407,136.312361 263.916746,136.667916 270.075293,135.5917 L270.62567,135.493017 L271.662463,135.294853 L272.794577,135.060206 L273.628612,134.876769 L274.455507,134.686712 L275.694062,134.387946 C276.413837,134.209908 277.125601,134.021317 277.829359,133.822153 C273.046296,134.228965 268.70225,133.256121 265.884219,130.376685 C262.772182,127.196805 261.906344,122.575275 262.212383,116.487941 L262.243403,115.930508 L262.342926,114.620976 L262.460507,113.44975 L262.574985,112.490333 L262.65238,111.909134 L262.79613,110.920134 L262.889508,110.330498 L263.072492,109.257723 L263.275282,108.169345 L263.49781,107.066024 L263.740029,105.948485 L263.989745,104.867811 C264.125667,104.297284 264.26869,103.723326 264.418666,103.146652 C267.386627,91.7344959 271.301013,84.1008403 277.355948,78.5512146 C286.684439,70.0012291 303.170343,66.6186913 310.002255,74.8207214 C312.567021,77.8998406 313.220759,81.9597036 312.929517,87.3266062 L312.897279,87.8676654 L312.824443,88.820816 C312.753145,89.6420082 312.659012,90.4888511 312.538255,91.3892048 L312.442635,92.0749386 L312.275548,93.1607236 L312.098733,94.2019473 L311.987729,94.8108455 L311.744648,96.0586836 L311.657018,96.482671 L311.413591,97.6068041 L311.152366,98.7367475 L310.8863,99.821943 L310.728132,100.438913 L310.385092,101.719047 L310.266257,102.14463 L309.938052,103.280837 L309.486827,104.756621 L309.065817,106.05496 C308.94071,106.430375 308.813413,106.803527 308.678434,107.189543 L308.469518,107.780105 L308.084975,108.830943 C307.900944,109.322636 307.713442,109.808289 307.515486,110.304494 L307.209837,111.058788 L306.786693,112.063451 C306.582271,112.537645 306.374763,113.003548 306.154538,113.480874 L305.813456,114.207896 L305.352929,115.149354 C304.847404,116.156918 304.327587,117.11222 303.792826,118.011604 C310.213394,110.942888 315.151117,101.831888 318.623569,90.6236232 C322.367947,78.5376192 321.850671,70.8212401 318.691792,67.8716988 L318.491199,67.6922273 L318.219342,67.4697918 L318.053533,67.3421324 L317.837479,67.1894417 L317.696793,67.1093417 L317.637362,67.0799444 C317.515339,67.0249247 317.359278,66.9747818 317.140076,66.9275846 L316.963381,66.8927089 L316.76028,66.8587567 L316.268576,66.7914447 L315.737374,66.7343421 L315.179513,66.6900681 L314.625774,66.6569529 L313.970076,66.6275473 L313.246789,66.6045551 L312.454999,66.5878486 L311.604474,66.5771824 L310.142442,66.5711696 Z M297.914041,85.1819105 L297.735806,85.1950569 C297.233471,85.2358804 296.671651,85.3159368 296.070196,85.4393419 C292.950648,86.0794031 289.66685,87.6744065 287.560909,89.6045971 C284.129007,92.750093 281.572806,97.562043 279.349728,105.644493 L279.010271,106.913966 L278.745975,107.961529 L278.66764,108.285794 L278.452893,109.212502 L278.255854,110.120762 L278.07653,111.008887 L277.914904,111.875127 L277.705551,113.129441 L277.535621,114.323858 L277.42915,115.218412 L277.338369,116.161782 L277.284223,116.916363 C277.254035,117.412632 277.237513,117.879076 277.233481,118.311717 L277.234414,118.802646 L277.280665,118.796334 C278.080597,118.652902 278.987521,118.421289 279.949028,118.105146 L280.364292,117.964491 C284.331249,116.581709 288.063801,114.184843 289.67606,112.07874 C290.28618,111.281739 290.94671,110.214749 291.593566,108.976417 L291.835371,108.504203 L292.227926,107.701781 C292.386826,107.368067 292.544958,107.024533 292.694483,106.68954 L292.911334,106.195752 L293.284759,105.309188 C293.438002,104.936303 293.589493,104.55592 293.733148,104.184472 L293.94199,103.636054 L294.288087,102.690319 L294.447173,102.240073 L294.743906,101.371888 L295.193695,99.977128 L295.478786,99.0382995 L295.882391,97.6238883 L296.25504,96.2108934 L296.485161,95.2746342 L296.699891,94.346489 L296.909481,93.3765329 L296.991825,92.9762568 L297.245898,91.6420122 L297.393409,90.778081 L297.531928,89.8743189 C297.62725,89.2140285 297.705176,88.5789353 297.76192,88.0154161 L297.800448,87.6069215 L297.860835,86.8181416 C297.8869,86.4150612 297.903204,86.0352075 297.910456,85.6814999 L297.914041,85.1819105 Z M360.74177,53.6199963 L357.789871,54.4147388 L343.438614,116.21191 L346.611592,115.420923 L360.74177,53.6199963 Z M370.780741,50.9191235 L364.861868,52.5123631 L382.740331,104.995403 L389.532213,103.418434 L370.780741,50.9191235 Z M411.805866,39.9616899 L408.080191,40.8903496 L392.20902,102.797659 L395.758837,101.97413 L404.555068,68.699433 L406.061069,62.8870966 C407.056966,59.0178528 408.040683,55.1444131 409.012218,51.2667773 L410.460385,45.4471765 L411.805866,39.9616899 Z M482.489278,52.3706925 C481.769955,52.2643831 480.793143,52.215988 479.586098,52.2488222 C476.942602,52.3207308 473.509903,52.7693417 469.36137,53.6007187 L468.282615,53.8214979 L468.364832,53.8467368 L468.663103,53.9531748 C477.390836,57.2901631 476.677167,70.251025 471.197777,76.993202 C470.228011,78.1864523 469.004273,79.2681995 467.311156,80.3284544 L466.760634,80.6626623 C466.477321,80.829514 466.18174,80.9960661 465.873044,81.1626729 L465.237914,81.4960645 L464.566302,81.8302319 L463.856702,82.165805 L463.107606,82.5034138 L462.317507,82.843688 L461.484896,83.1872577 L460.608267,83.5347527 C460.45841,83.5930307 460.306657,83.6514984 460.152975,83.7101691 L459.207492,84.0647332 L458.214222,84.4247974 L457.171658,84.7909916 L456.078292,85.1639456 L454.932616,85.5442895 L454.198913,85.7814092 L455.507278,85.4074371 L456.999069,84.9664587 L457.911675,84.6876847 L459.168408,84.2890301 L459.93769,84.0343332 L460.657134,83.7869494 L461.331024,83.5455543 L461.963641,83.3088236 L462.559266,83.0754327 L463.122181,82.8440573 L463.656668,82.6133729 L464.167009,82.3820552 L464.657486,82.1487798 L465.132381,81.9122222 L465.820016,81.5509623 L466.193368,81.3462452 L466.812374,80.9938129 L467.464118,80.6065224 L468.164723,80.1747987 L468.930317,79.6890673 C469.064227,79.6030795 469.201517,79.5144424 469.342523,79.4229566 C473.749846,76.5634432 478.325432,70.0443696 480.907594,62.9591225 C482.107491,59.666702 482.746205,56.578814 482.761394,54.2239532 C482.765153,53.5889224 482.723242,53.049507 482.649695,52.6199113 L482.603724,52.3884584 L482.489278,52.3706925 Z M488.704736,18.9066466 L487.719741,19.1336452 C485.487719,19.650707 483.173947,20.2190537 480.77876,20.8387414 L478.603737,21.4092999 L475.803716,22.1614607 L474.469608,22.5272725 L472.5482,23.0641787 L471.319072,23.4147731 L470.130303,23.759918 L468.420784,24.2682141 L466.796828,24.7662975 L465.255287,25.2553975 L464.271825,25.5770804 L462.860648,26.0539398 L461.96118,26.3686005 L461.093677,26.6810898 L459.850319,27.1465489 L459.05865,27.4552029 L458.295682,27.7629603 C458.170861,27.8141987 458.047196,27.865415 457.92467,27.9166166 L457.203005,28.2237119 L456.507709,28.5308211 L455.837851,28.8383085 L455.192496,29.1465382 L454.570713,29.4558745 L453.971569,29.7666816 L453.39413,30.0793238 L452.837465,30.3941652 L452.300641,30.7115702 C452.212772,30.7647049 452.12569,30.8179615 452.039377,30.8713478 L451.530565,31.193281 C451.447248,31.2472159 451.364661,31.3012956 451.282783,31.3555276 L450.799885,31.6828085 L450.333097,32.0141098 L449.881486,32.3497958 L449.444119,32.6902307 C449.37236,32.7473858 449.301155,32.8047539 449.230486,32.8623428 L448.812738,33.2105839 L448.406902,33.5644845 L448.012047,33.9244088 L447.627239,34.2907211 L447.251546,34.6637855 C447.189638,34.7265458 447.128071,34.7896026 447.066826,34.8529636 C443.149729,38.9053645 439.039694,48.5058904 438.871884,53.9336066 C438.815714,55.7503127 438.988026,56.9823437 439.256865,57.6538068 L439.352103,57.8731338 L439.456697,57.9072272 C440.364311,58.2532739 441.942694,58.3131963 444.181482,58.0152217 L444.87292,57.9150206 C445.109996,57.8779935 445.353667,57.8373155 445.60392,57.7929151 L446.37442,57.6484745 C446.63783,57.5965572 446.907813,57.5408457 447.184358,57.4812681 L448.033671,57.2908654 L448.922298,57.0768357 C449.073675,57.0391712 449.226688,57.0005044 449.381335,56.9608261 L450.328815,56.7105485 L451.315453,56.4355672 C451.483152,56.3876544 451.65248,56.3386944 451.823436,56.2886782 L452.868695,55.9758341 L454.379795,55.5098563 L454.134139,55.4618481 C453.488236,55.324018 452.86416,55.1337878 452.250414,54.8871874 L451.791862,54.6916057 L451.466099,54.5387561 C448.466351,53.0776988 446.571645,50.3775677 446.052796,47.1710103 C445.722734,45.1311879 445.938424,43.102176 446.532853,40.7423788 C447.792441,35.7419917 451.014975,32.2060452 456.434146,29.4699006 L457.034881,29.1736511 L457.660008,28.8793367 L458.311017,28.5863919 L458.989401,28.2942508 L459.696653,28.0023477 L460.434265,27.710117 L461.203728,27.4169929 L462.006536,27.1224097 L462.844181,26.8258018 L463.718155,26.5266033 L464.62995,26.2242487 L466.071822,25.7635613 L467.084699,25.4508411 L468.14062,25.1329847 L469.808475,24.6453323 L471.581573,24.1429413 L472.824594,23.798883 L474.784291,23.267685 L476.862663,22.7166569 L488.564049,19.6450687 L488.704736,18.9066466 Z" id="path28-path-4" fill="url(#linearGradient-3)"></path>
                        <path d="M422.90785,29.1274423 C419.666492,42.8577981 416.275364,56.5364572 412.734465,70.1634196 L412.734465,70.1634196 L402.777186,107.97334 L378.695813,113.582573 L364.880143,72.87367 L353.839013,121.342448 L334.23513,126.250815 L352.373223,47.8522128 L376.443354,41.3514749 L390.704389,81.4302719 L402.777186,34.1606907 Z M499.060448,8.73493541 L495.919225,25.1402186 L479.635687,29.4305969 C461.087075,34.3177733 456.004281,36.8936965 454.706634,42.0644815 C453.281031,47.7451354 455.439921,48.8005895 464.245473,46.7278788 C477.367399,43.6391495 485.647187,43.4130763 488.57565,46.0635674 C495.775197,52.5797264 486.838109,77.1943097 474.310452,85.3528409 C473.081675,86.1530705 471.970703,86.8458948 470.851111,87.4761185 L470.477421,87.683936 C470.352635,87.7524766 470.22757,87.8203058 470.102052,87.8874851 L469.723963,88.0871347 L469.723963,88.0871347 L469.342114,88.2832536 C464.60518,90.6817951 458.772896,92.3588666 443.060912,96.4276232 C433.159586,98.9916532 426.049821,100.742363 421.731616,101.679754 L421.731616,101.679754 L424.667063,86.3450373 C427.845156,85.4023586 430.137302,84.7409666 431.543499,84.3608615 C457.890421,77.2391459 464.033041,74.5354669 466.199301,71.8599984 C468.951391,68.4609641 469.334156,61.4834393 466.821443,60.5191197 C465.866822,60.1527659 461.232547,61.0608674 456.523038,62.5371254 C438.940134,68.0487016 431.839502,65.3312924 432.21216,53.2333504 C432.437813,45.9073155 437.303756,34.4984839 442.507325,29.0949956 C448.757788,22.6043828 456.957357,18.9946087 478.257043,13.3565447 C485.955207,11.3188286 492.889676,9.77829213 499.060448,8.73493541 L499.060448,8.73493541 Z M186.217552,93.1413391 C199.275775,85.0700924 219.112516,80.6952324 228.540915,83.8071986 C240.702778,87.8213807 241.064644,107.564412 229.40973,131.20855 C220.53177,149.219102 206.750599,160.870393 188.792566,165.548345 C186.026794,166.268809 182.907688,166.787424 179.801677,167.096716 L178.706579,167.197174 C175.973175,167.42653 173.283531,167.492233 170.889366,167.38915 L169.948055,167.338903 C167.174981,167.161082 164.875728,166.739223 163.485271,166.064454 C146.378643,157.76291 161.822735,108.219693 186.217552,93.1413391 Z M212.656092,122.79379 L212.957578,121.600078 C213.150421,120.815618 213.326969,120.05385 213.4872,119.314751 L213.715308,118.2231 L213.715308,118.2231 L213.918926,117.165434 L213.918926,117.165434 L214.09804,116.141734 C216.545276,101.376466 211.081028,97.565185 197.493233,104.451341 C192.85188,106.803514 189.938559,109.498597 187.454146,113.738355 C181.06092,124.648677 177.202937,141.752656 179.679405,148.206885 C180.220516,149.617162 182.160112,150.309021 185.572619,150.309021 C197.136241,150.309021 205.172101,143.86105 210.285567,130.350092 L210.683201,129.268752 C211.205314,127.807371 211.695222,126.26755 212.153632,124.648572 L212.491545,123.419486 C212.546883,123.212161 212.601732,123.003596 212.656092,122.79379 Z M72.5666664,137.144459 C72.1016205,139.66057 71.5849027,141.981308 71.016513,144.106675 L71.016513,144.106675 L69.4663583,149.903113 L54.4288139,154.239058 C41.2182278,158.04822 38.8325783,159.193479 34.7927313,163.665556 C27.845105,171.356523 23.6046483,188.521907 27.6523163,192.56998 C29.7405128,194.658391 32.1442641,194.581743 40.2729547,192.167538 C46.4454459,190.334312 47.1069594,189.739419 48.3295748,184.922197 C48.9768736,182.371783 48.9768736,180.421613 48.3295748,179.071686 C47.2917624,179.021168 46.2160961,179.207608 45.1025756,179.631007 C43.2367178,180.34048 41.2924414,180.919387 39.2697466,181.367728 C39.4168962,179.467917 39.6539915,177.642516 39.9810326,175.891524 C40.3223289,174.064205 40.7629692,172.270028 41.3029534,170.508994 C59.4430124,165.266668 68.6649145,162.797395 68.9686597,163.101177 C69.031275,163.163799 69.0333881,163.4158 68.9749988,163.857182 L68.9437539,164.074343 C68.4402574,167.341297 65.3501982,178.704507 59.6735763,198.163973 C54.3405957,200.04096 48.8467479,201.745303 43.192033,203.277003 C25.0457881,208.192283 15.3250967,208.681282 11.5147468,204.87055 C7.94406779,201.299521 6.97843791,194.68068 8.68286628,185.459654 C11.8703496,168.215236 22.2239586,153.680782 36.1876707,146.848294 C41.5132617,144.242459 53.6395936,141.007847 72.5666664,137.144459 Z M157.12185,100.204702 L152.881392,117.464829 L130.643983,124.080677 L124.592646,148.890068 C124.50705,149.222687 124.421535,149.555025 124.336137,149.886948 L124.080326,150.881336 C120.589949,164.450595 117.352964,177.094995 116.749092,179.52112 C115.647614,183.946422 115.139105,184.276686 105.044948,187.122505 C99.2409971,188.758809 94.3428175,190.115618 94.1601036,190.137718 C93.4575952,190.222592 94.1013108,187.324523 101.082378,158.973102 C104.682374,144.35284 107.562141,132.026965 107.912763,129.788142 L107.932197,129.655227 C107.950549,129.517406 107.9537,129.440285 107.940828,129.427411 C107.818234,129.304795 100.584707,131.182149 86.2402484,135.059472 L86.2402484,135.059472 L90.3475136,117.464829 L157.12185,100.204702 Z M311.077446,58.610715 L312.559704,58.6166195 L313.472371,58.6278295 L314.328185,58.6456571 L315.130189,58.6707867 L315.881429,58.703903 L316.584949,58.7456904 L317.243792,58.7968336 C317.350045,58.8061751 317.454564,58.815935 317.557411,58.8261275 L318.154948,58.8925877 L318.715419,58.9701149 C320.163292,59.1922188 321.248267,59.5396729 322.230116,60.070891 L322.593982,60.2788259 C322.774006,60.3872144 322.951546,60.50232 323.128314,60.6245279 L323.481328,60.8785273 L323.835329,61.1521504 L324.19336,61.4460819 C324.253537,61.4968009 324.314009,61.5483945 324.374839,61.6008772 C330.513216,66.8969382 331.335699,77.6230723 326.744114,92.4992187 C318.526,119.124803 302.313842,135.573728 278.449939,141.49865 L277.170157,141.808649 C276.540174,141.957294 275.924926,142.096404 275.323848,142.225969 L274.140417,142.472371 L272.993762,142.693301 C264.71735,144.220015 259.326367,143.690577 255.032961,141.072437 L254.73713,140.890083 L254.169322,140.52768 L253.632649,140.166794 C250.24373,137.821929 248.777086,135.455062 248.238719,130.761631 L248.163084,130.020898 C248.151653,129.89428 248.1408,129.766054 248.130507,129.636183 L248.075334,128.836887 L248.032797,127.996218 L248.002093,127.112311 L247.982417,126.183302 L247.972964,125.207324 C247.97182,125.040644 247.97182,124.871929 247.97182,124.70114 C247.97182,110.826712 255.942067,90.5529417 266.03045,78.7657443 C276.051233,67.0575311 294.930076,58.610715 311.077446,58.610715 Z M283.396252,83.7095545 C278.566935,88.1524364 275.291115,94.5647129 272.656936,104.731402 C272.519434,105.262096 272.388912,105.788005 272.265384,106.30845 L272.02766,107.341852 L271.808615,108.359472 L271.608275,109.3601 L271.426666,110.342527 L271.263814,111.305541 C271.238237,111.464358 271.213442,111.622317 271.18943,111.77939 L271.054762,112.711018 C271.033886,112.864453 271.013793,113.016954 270.994485,113.168494 L270.88806,114.066013 L270.800497,114.93928 C270.787476,115.082736 270.775242,115.225131 270.763796,115.366441 L270.704573,116.201061 C270.447457,120.443844 270.94818,123.594419 272.222905,124.901816 C276.066965,128.844359 291.100468,123.584424 296.600744,116.372448 C297.622691,115.032474 298.611491,113.377477 299.542429,111.515065 L299.967894,110.641155 C300.248678,110.049252 300.523625,109.439279 300.792013,108.814372 L301.189586,107.866201 C301.451236,107.227142 301.705968,106.574716 301.953062,105.912056 L302.317884,104.910785 C302.497341,104.406703 302.672299,103.897747 302.842454,103.38524 L303.176271,102.35588 C303.23081,102.183662 303.284792,102.011146 303.338208,101.838383 L303.651801,100.799224 L303.951238,99.7564706 C303.999934,99.5825094 304.048018,99.4084965 304.095478,99.2344807 L304.372667,98.1907439 C304.417588,98.0169128 304.461862,97.8431767 304.50548,97.6695848 L304.759205,96.6301545 L304.996613,95.5965339 L305.217164,94.571074 C305.252488,94.4009747 305.287087,94.2313134 305.32095,94.0621391 L305.515203,93.0533285 C305.546076,92.8862979 305.57619,92.7198523 305.605535,92.5540406 L305.772275,91.567169 L305.919998,90.5978621 C306.058032,89.6381214 306.166731,88.7082543 306.243664,87.8188404 L306.309919,86.9433027 C306.541111,83.3546795 306.206755,80.5295931 305.131073,79.233346 C301.800723,75.2201183 289.977297,77.655118 283.396252,83.7095545 Z" id="path28-path-4" fill="url(#linearGradient-4)"></path>
                    </g>
                    <path d="M297.483625,157.984322 L486.459123,106.336525 C487.524616,106.045321 488.624435,106.673006 488.915639,107.738499 C488.917378,107.744862 488.919085,107.751233 488.920761,107.757613 L496.062782,134.944688 C496.341468,136.005543 495.713731,137.092922 494.655685,137.38209 L305.680187,189.029887 C304.614694,189.32109 303.514875,188.693405 303.223671,187.627913 C303.221932,187.62155 303.220225,187.615178 303.218549,187.608798 L296.076528,160.421723 C295.797843,159.360868 296.425579,158.27349 297.483625,157.984322 Z" id="Rectangle" fill="#235C8D"></path>
                    <path d="M310.296909,158.917708 L310.296909,152.092546 L311.271418,152.092546 L316.265779,158.917708 L323.056891,158.917708 L317.179381,151.546533 C319.798375,150.727513 321.412406,148.482793 321.412406,144.509032 C321.290593,139.473579 317.849356,137.441198 313.403157,137.441198 L304.78484,137.441198 L304.78484,158.917708 L310.296909,158.917708 Z M314.143074,146.955765 L311.169246,146.955765 L311.169246,141.586637 L314.143074,141.586637 C317.34348,141.586637 317.34348,146.955765 314.143074,146.955765 Z M339.965924,158.317316 L339.965924,153.190861 L330.442917,153.190861 L330.442917,149.975451 L339.202862,149.975451 L339.202862,145.273673 L330.442917,145.273673 L330.442917,141.936927 L339.965924,141.936927 L339.965924,136.840806 L324.918352,136.840806 L324.918352,158.317316 L339.965924,158.317316 Z M348.118343,158.133814 L348.118343,151.945667 L347.764975,147.607897 L347.912212,147.577563 L350.709705,154.948738 L354.331723,154.948738 L357.070323,147.577563 L357.247006,147.607897 L356.923086,151.945667 L356.893639,158.133814 L362.194153,158.133814 L362.194153,136.657304 L356.923086,136.657304 L352.505991,147.152886 L348.118343,136.657304 L342.847276,136.657304 L342.847276,158.133814 L348.118343,158.133814 Z M368.821518,158.089275 L370.176804,153.781839 L375.998376,153.781839 L377.415267,158.089275 L383.329244,158.089275 L375.536347,136.612765 L370.515626,136.612765 L362.90754,158.089275 L368.821518,158.089275 Z M375.008818,149.535261 L371.784338,149.535261 L373.366158,143.092308 L373.518256,143.092308 L375.008818,149.535261 Z M390.233772,158.387156 C394.253843,158.387156 398.706845,156.174603 398.892387,152.133007 C399.139776,146.999885 395.243399,145.701854 391.347023,145.023338 C389.646223,144.66933 388.502049,144.079316 388.440202,143.076292 C388.532973,140.657235 392.460273,140.568733 394.748621,142.899288 L398.366685,140.244225 C396.109261,137.618662 393.5426,136.910646 390.883168,136.910646 C386.863097,136.910646 382.966721,139.064197 382.966721,143.164794 C382.966721,147.147389 386.182777,149.271439 389.708071,149.802452 C391.501641,150.038457 393.511676,150.716974 393.449829,151.897002 C393.295211,154.139055 388.471126,154.021052 386.275548,151.483992 L382.781179,154.611066 C384.822138,157.118626 387.605264,158.387156 390.233772,158.387156 Z M410.841425,158.546073 L410.841425,142.219079 L416.645874,142.219079 L416.645874,137.069563 L399.44865,137.069563 L399.44865,142.219079 L405.253099,142.219079 L405.253099,158.546073 L410.841425,158.546073 Z M434.333236,159.12188 L434.333236,153.995425 L424.810229,153.995425 L424.810229,150.780016 L433.570174,150.780016 L433.570174,146.078237 L424.810229,146.078237 L424.810229,142.741491 L434.333236,142.741491 L434.333236,137.64537 L419.285664,137.64537 L419.285664,159.12188 L434.333236,159.12188 Z M441.706766,158.521489 L441.706766,151.696326 L442.681275,151.696326 L447.675636,158.521489 L454.466748,158.521489 L448.589238,151.150314 C451.208232,150.331294 452.822263,148.086574 452.822263,144.112813 C452.70045,139.07736 449.259214,137.044979 444.813014,137.044979 L436.194697,137.044979 L436.194697,158.521489 L441.706766,158.521489 Z M445.274746,147.596781 L442.300917,147.596781 L442.300917,142.227654 L445.274746,142.227654 C448.475152,142.227654 448.475152,147.596781 445.274746,147.596781 Z M471.097595,158.958333 L471.097595,153.831877 L461.574588,153.831877 L461.574588,150.616468 L470.334534,150.616468 L470.334534,145.914689 L461.574588,145.914689 L461.574588,142.577944 L471.097595,142.577944 L471.097595,137.481822 L456.050024,137.481822 L456.050024,158.958333 L471.097595,158.958333 Z M490.156281,151.289894 L490.156281,144.070496 C490.156281,139.06545 486.185394,136.881431 481.9458,136.881431 L474.033883,136.881431 L474.033883,158.357625 L481.9458,158.357625 C486.185394,158.387959 490.156281,156.234272 490.156281,151.289894 Z M482.124938,152.988813 L479.408016,152.988813 L479.408016,142.250558 L482.124938,142.250558 C483.916316,142.250558 484.782148,143.085436 484.782148,144.409725 L484.782148,150.772069 C484.782148,152.096358 483.946172,152.988813 482.124938,152.988813 Z" id="remastered" fill="#D8F0FB" fill-rule="nonzero" transform="translate(397.621138, 147.776192) rotate(-15.000000) translate(-397.621138, -147.776192) "></path>
                </g>
            </g>
        </g>
    </g>
</svg>